<?xml version="1.0" standalone="no"?>
<!DOCTYPE svg PUBLIC "-//W3C//DTD SVG 20010904//EN"
 "http://www.w3.org/TR/2001/REC-SVG-20010904/DTD/svg10.dtd">
<svg version="1.0" xmlns="http://www.w3.org/2000/svg"
 width="500.000000pt" height="500.000000pt" viewBox="0 0 500.000000 500.000000"
 preserveAspectRatio="xMidYMid meet">
<metadata>
Created by potrace 1.11, written by Peter Selinger 2001-2013
</metadata>
<g transform="translate(0.000000,500.000000) scale(0.100000,-0.100000)"
fill="#000000" stroke="none">
<path d="M2364 4972 c4 -7 -11 -10 -48 -9 -30 1 -52 -1 -50 -5 3 -4 -4 -7 -13
-6 -30 0 -83 -10 -188 -37 -55 -14 -107 -28 -117 -30 -9 -2 -49 -17 -89 -34
-41 -17 -79 -31 -87 -31 -7 0 -15 -7 -18 -15 -4 -8 -10 -12 -16 -9 -5 3 -18
-2 -29 -12 -10 -9 -19 -13 -19 -9 0 4 -9 0 -20 -10 -11 -10 -20 -15 -20 -12 0
4 -16 -5 -36 -18 -20 -14 -41 -22 -48 -18 -6 3 -8 2 -3 -2 4 -5 -12 -20 -35
-33 -49 -29 -159 -111 -170 -127 -4 -5 -8 -6 -8 -2 0 10 -214 -206 -255 -258
-16 -20 -29 -41 -28 -46 2 -5 -4 -9 -12 -9 -9 0 -15 -9 -15 -22 0 -12 -3 -18
-6 -15 -7 7 -72 -95 -109 -168 -11 -22 -23 -42 -26 -45 -14 -11 -69 -142 -63
-151 3 -5 1 -9 -5 -9 -8 0 -20 -23 -27 -52 -1 -5 -3 -10 -4 -13 -1 -3 -4 -9
-5 -15 -1 -5 -4 -12 -5 -15 -1 -3 -3 -8 -4 -12 -2 -5 -8 -28 -15 -53 -7 -25
-15 -52 -16 -60 -2 -8 -4 -16 -5 -17 -2 -2 -3 -11 -4 -20 -1 -10 -4 -23 -8
-29 -4 -5 -9 -36 -12 -68 -3 -32 -10 -64 -15 -70 -15 -18 -6 -531 9 -531 1 0
3 -16 5 -35 2 -19 4 -35 5 -35 1 0 4 -11 6 -25 8 -43 37 -145 44 -155 4 -5 6
-18 5 -27 -2 -10 1 -18 6 -18 6 0 8 -4 4 -9 -3 -5 -1 -12 5 -16 5 -3 10 -12
10 -19 0 -8 7 -30 15 -50 8 -20 16 -39 16 -43 1 -12 33 -67 42 -74 4 -3 9 -15
11 -26 3 -11 23 -51 45 -88 23 -37 41 -71 41 -76 0 -5 4 -9 10 -9 5 0 17 -15
26 -33 9 -17 20 -34 23 -37 3 -3 20 -25 36 -50 17 -24 85 -98 151 -165 131
-130 125 -125 205 -181 30 -21 56 -41 59 -44 8 -8 42 -29 70 -42 14 -7 27 -15
30 -18 14 -15 204 -110 220 -110 5 0 10 -5 10 -11 0 -5 4 -7 10 -4 27 17 113
-70 124 -125 2 -8 15 -41 30 -73 16 -32 29 -63 30 -70 1 -7 10 -29 19 -51 9
-21 17 -45 17 -52 0 -8 5 -14 10 -14 6 0 10 -6 10 -13 0 -7 9 -32 20 -55 11
-22 20 -48 20 -57 0 -8 5 -15 12 -15 6 0 8 -3 5 -6 -4 -4 0 -19 7 -33 7 -14
18 -37 24 -51 6 -14 20 -47 31 -74 12 -27 21 -52 21 -56 0 -4 14 -38 32 -76
37 -80 33 -70 43 -111 4 -17 15 -40 24 -50 9 -10 16 -25 16 -33 0 -8 7 -28 17
-44 9 -16 15 -33 12 -38 -3 -4 -1 -8 4 -8 8 0 15 -15 20 -40 0 -3 15 -36 32
-75 17 -38 31 -71 31 -72 -1 -2 7 -20 16 -42 16 -37 53 -73 53 -51 0 6 10 8
23 5 12 -3 27 -2 33 2 13 10 58 83 50 83 -3 0 9 29 25 65 17 35 32 70 33 77 1
7 10 31 20 53 10 22 22 49 26 60 4 11 15 36 23 55 8 19 32 77 52 128 20 50 41
92 47 92 5 0 7 4 4 8 -3 5 1 21 9 36 8 15 14 30 13 34 -1 4 3 17 10 30 7 12
10 26 8 31 -3 5 1 12 10 15 8 3 12 10 9 16 -3 5 -1 10 4 10 6 0 10 3 9 7 -1 5
6 25 15 47 9 21 17 41 17 43 0 3 7 21 16 41 9 21 22 51 29 67 7 17 18 41 24
55 6 14 19 48 30 76 11 28 29 71 39 95 28 61 35 83 34 92 -1 4 3 7 10 7 6 0 8
3 5 7 -9 8 22 43 37 43 6 0 53 20 104 45 51 25 97 45 103 45 5 0 9 4 9 8 0 4
14 16 30 25 17 10 30 16 30 13 0 -3 12 6 26 19 15 14 30 22 34 20 4 -3 11 2
14 11 4 9 9 14 13 11 3 -4 13 1 22 11 19 21 87 72 96 72 8 0 224 219 255 259
14 17 35 43 47 56 13 13 24 30 25 37 2 7 5 15 8 18 18 16 70 96 70 106 0 7 4
14 8 16 11 4 83 138 88 163 2 11 8 21 14 23 6 2 8 8 4 13 -3 5 0 9 5 9 6 0 11
8 11 18 0 10 3 22 8 26 4 4 8 12 8 17 1 5 3 11 4 14 1 3 3 8 5 13 1 4 5 14 8
22 4 8 8 24 10 35 2 11 9 34 16 50 7 17 14 45 17 64 2 18 7 37 10 42 3 5 7 22
10 37 2 15 9 50 14 77 25 136 28 416 5 555 -4 25 -9 52 -10 60 -7 55 -18 101
-25 105 -5 3 -7 12 -4 19 3 8 1 17 -5 20 -6 4 -8 13 -5 20 3 8 1 17 -5 20 -6
4 -8 13 -4 21 3 8 0 15 -7 15 -6 0 -9 4 -5 9 3 5 1 12 -4 16 -6 3 -8 12 -5 19
3 8 0 17 -5 21 -6 3 -9 11 -6 16 4 5 1 9 -5 9 -7 0 -10 7 -6 15 3 8 0 15 -6
15 -6 0 -8 3 -5 6 4 4 0 19 -7 33 -8 14 -24 49 -37 76 -32 67 -84 158 -128
224 -20 29 -40 60 -46 69 -5 9 -14 21 -20 27 -5 7 -21 27 -35 45 -14 18 -46
55 -72 81 -27 27 -48 53 -48 59 0 5 -5 10 -10 10 -6 0 -28 18 -50 40 -22 22
-44 40 -49 40 -6 0 -15 9 -21 20 -6 11 -17 20 -25 20 -8 0 -15 4 -15 9 0 26
-344 234 -387 234 -7 0 -13 3 -13 7 0 7 -78 40 -103 44 -6 1 -16 4 -22 7 -5 3
-30 11 -55 18 -25 8 -56 17 -70 22 -14 5 -41 11 -60 14 -19 3 -42 8 -50 10
-27 8 -75 16 -90 17 -8 0 -22 2 -30 5 -8 3 -55 7 -105 10 -49 2 -111 5 -137 6
-27 1 -48 0 -48 -3 0 -8 -75 -4 -90 5 -8 5 -11 4 -6 -3z"/>
</g>
</svg>
